<svg width="17" height="16" viewBox="0 0 17 16" fill="none" xmlns="http://www.w3.org/2000/svg">
<g id="Frame">
<path id="Vector" d="M12.9835 7.28033C13.2763 6.98744 13.2763 6.51256 12.9835 6.21967C12.6906 5.92678 12.2157 5.92678 11.9228 6.21967L12.9835 7.28033ZM8.20313 11L7.6728 11.5303C7.96569 11.8232 8.44057 11.8232 8.73346 11.5303L8.20313 11ZM4.48343 6.21967C4.19053 5.92678 3.71573 5.92678 3.42283 6.21967C3.12993 6.51256 3.12993 6.98744 3.42283 7.28033L4.48343 6.21967ZM11.9228 6.21967L7.6728 10.4697L8.73346 11.5303L12.9835 7.28033L11.9228 6.21967ZM8.73346 10.4697L4.48343 6.21967L3.42283 7.28033L7.6728 11.5303L8.73346 10.4697Z" fill="white"/>
<g id="Line">
<path d="M8.20312 1.75L8.20312 11L8.20312 1.75Z" fill="white"/>
<path d="M8.20312 1.75L8.20312 11" stroke="white" stroke-width="1.5" stroke-linecap="round" stroke-dasharray="10 10"/>
</g>
</g>
</svg>
